<svg xmlns="http://www.w3.org/2000/svg" xmlns:xlink="http://www.w3.org/1999/xlink" width="500" zoomAndPan="magnify" viewBox="0 0 375 374.999991" height="500" preserveAspectRatio="xMidYMid meet" version="1.0"><defs><clipPath id="c00a29d686"><path d="M 0 32.386719 L 375 32.386719 L 375 342.886719 L 0 342.886719 Z M 0 32.386719 " clip-rule="nonzero"/></clipPath></defs><g clip-path="url(#c00a29d686)"><path fill="#ffffff" d="M 184.996094 123.894531 L 184.996094 319.765625 L 216.667969 299.613281 L 216.667969 144.128906 L 229.15625 144.128906 L 229.15625 306.480469 L 172.519531 342.511719 L 172.519531 111.398438 L 335.394531 111.398438 L 353.253906 80.8125 L 178.726562 80.8125 L 178.726562 68.324219 L 375.027344 68.324219 L 342.566406 123.894531 Z M 44.757812 44.960938 L 317.039062 44.960938 L 303.304688 32.476562 L 37.691406 32.476562 L 0 95.824219 L 126.730469 95.824219 L 126.730469 310.332031 L 139.214844 322.90625 L 139.214844 83.3125 L 21.953125 83.3125 Z M 44.757812 44.960938 " fill-opacity="1" fill-rule="nonzero"/></g></svg>