<svg xmlns="http://www.w3.org/2000/svg" xmlns:xlink="http://www.w3.org/1999/xlink" width="500" zoomAndPan="magnify" viewBox="0 0 375 374.999991" height="500" preserveAspectRatio="xMidYMid meet" version="1.0"><defs><clipPath id="96b3d73d5d"><path d="M 0 31.304688 L 375 31.304688 L 375 341.804688 L 0 341.804688 Z M 0 31.304688 " clip-rule="nonzero"/></clipPath></defs><g clip-path="url(#96b3d73d5d)"><path fill="#ff5757" d="M 184.996094 122.8125 L 184.996094 318.683594 L 216.667969 298.527344 L 216.667969 143.046875 L 229.15625 143.046875 L 229.15625 305.394531 L 172.519531 341.429688 L 172.519531 110.316406 L 335.394531 110.316406 L 353.253906 79.730469 L 178.726562 79.730469 L 178.726562 67.242188 L 375.027344 67.242188 L 342.566406 122.8125 Z M 44.757812 43.875 L 317.039062 43.875 L 303.304688 31.394531 L 37.691406 31.394531 L 0 94.738281 L 126.730469 94.738281 L 126.730469 309.246094 L 139.214844 321.824219 L 139.214844 82.230469 L 21.953125 82.230469 Z M 44.757812 43.875 " fill-opacity="1" fill-rule="nonzero"/></g></svg>