<svg xmlns="http://www.w3.org/2000/svg" xmlns:xlink="http://www.w3.org/1999/xlink" width="500" zoomAndPan="magnify" viewBox="0 0 375 374.999991" height="500" preserveAspectRatio="xMidYMid meet" version="1.0"><defs><clipPath id="0b8269f332"><path d="M 128.667969 104.28125 L 259 104.28125 L 259 212.28125 L 128.667969 212.28125 Z M 128.667969 104.28125 " clip-rule="nonzero"/></clipPath></defs><g clip-path="url(#0b8269f332)"><path fill="#ff5757" d="M 192.957031 136.082031 L 192.957031 204.15625 L 203.964844 197.148438 L 203.964844 143.117188 L 208.304688 143.117188 L 208.304688 199.535156 L 188.625 212.058594 L 188.625 131.742188 L 245.226562 131.742188 L 251.433594 121.109375 L 190.78125 121.109375 L 190.78125 116.769531 L 259 116.769531 L 247.71875 136.082031 Z M 144.222656 108.652344 L 238.847656 108.652344 L 234.074219 104.3125 L 141.765625 104.3125 L 128.667969 126.328125 L 172.710938 126.328125 L 172.710938 200.875 L 177.046875 205.246094 L 177.046875 121.980469 L 136.296875 121.980469 Z M 144.222656 108.652344 " fill-opacity="1" fill-rule="nonzero"/></g></svg>